<?xml version="1.0" encoding="utf-8"?>
<!-- Generator: Adobe Illustrator 28.0.0, SVG Export Plug-In . SVG Version: 6.00 Build 0)  -->
<svg version="1.1" id="Camada_1" xmlns="http://www.w3.org/2000/svg" xmlns:xlink="http://www.w3.org/1999/xlink" x="0px" y="0px"
	 viewBox="0 0 138 27" style="enable-background:new 0 0 138 27;" xml:space="preserve">
<style type="text/css">
	.st0{fill:url(#SVGID_1_);stroke:#FFFFFF;stroke-width:0.25;stroke-miterlimit:10;}
	
		.st1{fill:url(#SVGID_00000097477838076109157190000014919539896696168346_);stroke:#FFFFFF;stroke-width:0.25;stroke-miterlimit:10;}
	
		.st2{fill:url(#SVGID_00000060000057798497286350000000026492926754038956_);stroke:#FFFFFF;stroke-width:0.25;stroke-miterlimit:10;}
	
		.st3{fill:url(#SVGID_00000000921310004913070920000002481533684839344793_);stroke:#FFFFFF;stroke-width:0.25;stroke-miterlimit:10;}
	
		.st4{fill:url(#SVGID_00000174579986627460744480000015681330226779321473_);stroke:#FFFFFF;stroke-width:0.25;stroke-miterlimit:10;}
	
		.st5{fill:url(#SVGID_00000100346639623202011080000006406904062721777813_);stroke:#FFFFFF;stroke-width:0.25;stroke-miterlimit:10;}
	.st6{fill:#2F2559;}
	.st7{fill:url(#SVGID_00000128479693458902069180000004383911657292481965_);}
	.st8{fill:url(#SVGID_00000038408081562594592940000008859831810471868839_);}
	.st9{fill:url(#SVGID_00000039848341082439947740000014996669198841309876_);}
	.st10{fill:url(#SVGID_00000033340890194326776750000018138982285735743637_);}
	.st11{fill:#84F5FF;}
	.st12{fill:url(#SVGID_00000036933920832273854090000000000128088909001407_);}
	.st13{fill:url(#SVGID_00000083786112334277664000000017967371061656892348_);}
	.st14{fill:url(#SVGID_00000065064652119522626740000000311071636991081088_);}
	.st15{fill:url(#SVGID_00000096021164516346707410000008581697403471401901_);}
</style>
<g>
	
		<linearGradient id="SVGID_1_" gradientUnits="userSpaceOnUse" x1="35.2583" y1="13.9262" x2="50.1363" y2="13.9262" gradientTransform="matrix(1 0 0 -1 0 28)">
		<stop  offset="0" style="stop-color:#00E0FD"/>
		<stop  offset="1" style="stop-color:#009FF8"/>
	</linearGradient>
	<path class="st0" d="M38.6,14.8v6.5h-3.3V6.9h3.3v6.5l7.5-6.5h4.1l-8.3,7.2l8.3,7.2h-4.1L38.6,14.8z"/>
	
		<linearGradient id="SVGID_00000036236248368665874050000011770963871188262029_" gradientUnits="userSpaceOnUse" x1="51.9997" y1="13.9262" x2="66.8776" y2="13.9262" gradientTransform="matrix(1 0 0 -1 0 28)">
		<stop  offset="0" style="stop-color:#00E0FD"/>
		<stop  offset="1" style="stop-color:#009FF8"/>
	</linearGradient>
	
		<path style="fill:url(#SVGID_00000036236248368665874050000011770963871188262029_);stroke:#FFFFFF;stroke-width:0.25;stroke-miterlimit:10;" d="
		M52,6.9h7.4c2.1,0,3.8,0.5,5.3,1.6s2.2,2.3,2.2,3.8s-0.7,2.8-2.2,3.8c-0.9,0.7-1.9,1.1-3.1,1.4l5.3,3.8h-4.1l-5-3.6h-2.5v3.6H52
		C52,21.3,52,6.9,52,6.9z M55.3,9.3v6h4.1c1.1,0,2.1-0.3,2.9-0.9c0.8-0.6,1.2-1.3,1.2-2.1s-0.4-1.5-1.2-2.1
		c-0.7-0.6-1.7-0.9-2.8-0.9H55.3z"/>
	
		<linearGradient id="SVGID_00000080926092346990541840000010224203093123560889_" gradientUnits="userSpaceOnUse" x1="66.3967" y1="13.8762" x2="82.9274" y2="13.8762" gradientTransform="matrix(1 0 0 -1 0 28)">
		<stop  offset="0" style="stop-color:#00E0FD"/>
		<stop  offset="1" style="stop-color:#009FF8"/>
	</linearGradient>
	
		<path style="fill:url(#SVGID_00000080926092346990541840000010224203093123560889_);stroke:#FFFFFF;stroke-width:0.25;stroke-miterlimit:10;" d="
		M73.1,14.5l-0.2-0.4l-6.5-7.2h3.7l4.5,5.1l4.7-5.1H83l-6.4,7.2l-0.2,0.3v7h-3.3V14.5z"/>
	
		<linearGradient id="SVGID_00000069387902687783564840000009708829446880038542_" gradientUnits="userSpaceOnUse" x1="84.4225" y1="13.9262" x2="99.3005" y2="13.9262" gradientTransform="matrix(1 0 0 -1 0 28)">
		<stop  offset="0" style="stop-color:#00E0FD"/>
		<stop  offset="1" style="stop-color:#009FF8"/>
	</linearGradient>
	
		<path style="fill:url(#SVGID_00000069387902687783564840000009708829446880038542_);stroke:#FFFFFF;stroke-width:0.25;stroke-miterlimit:10;" d="
		M84.5,6.9h7.4c2.1,0,3.8,0.5,5.3,1.6s2.2,2.3,2.2,3.8s-0.7,2.8-2.2,3.8c-1.5,1.1-3.2,1.6-5.3,1.6h-4.1v3.6h-3.3V6.9z M87.8,9.3v6
		h4.1c1.1,0,2.1-0.3,2.9-0.9c0.8-0.6,1.2-1.3,1.2-2.1s-0.4-1.5-1.2-2.1C94,9.6,93,9.3,91.9,9.3H87.8z"/>
	
		<linearGradient id="SVGID_00000134212991288199328680000017965350708298703036_" gradientUnits="userSpaceOnUse" x1="99.7583" y1="13.8762" x2="114.6362" y2="13.8762" gradientTransform="matrix(1 0 0 -1 0 28)">
		<stop  offset="0" style="stop-color:#00E0FD"/>
		<stop  offset="1" style="stop-color:#009FF8"/>
	</linearGradient>
	
		<path style="fill:url(#SVGID_00000134212991288199328680000017965350708298703036_);stroke:#FFFFFF;stroke-width:0.25;stroke-miterlimit:10;" d="
		M108.9,9.3v12.1h-3.3V9.3h-5.8l3.3-2.4h11.6l-3.3,2.4H108.9z"/>
	
		<linearGradient id="SVGID_00000088103115560446450220000008159782471553963916_" gradientUnits="userSpaceOnUse" x1="110.4583" y1="14.2762" x2="130.2962" y2="14.2762" gradientTransform="matrix(1 0 0 -1 0 28)">
		<stop  offset="0" style="stop-color:#00E0FD"/>
		<stop  offset="1" style="stop-color:#009FF8"/>
	</linearGradient>
	
		<path style="fill:url(#SVGID_00000088103115560446450220000008159782471553963916_);stroke:#FFFFFF;stroke-width:0.25;stroke-miterlimit:10;" d="
		M110.5,21.3l9.9-15.1l9.9,15.1h-3.7l-6.2-9l-6.2,9H110.5z"/>
</g>
<g>
	<path class="st6" d="M16.4,4.9"/>
	
		<linearGradient id="SVGID_00000134951883478008590050000012088796274563385498_" gradientUnits="userSpaceOnUse" x1="14.4884" y1="27.6513" x2="24.4203" y2="10.5588" gradientTransform="matrix(1 0 0 -1 0 28)">
		<stop  offset="0" style="stop-color:#34AAF8"/>
		<stop  offset="0.1245" style="stop-color:#378EEE"/>
		<stop  offset="0.3378" style="stop-color:#3D64DF"/>
		<stop  offset="0.5055" style="stop-color:#404BD5"/>
		<stop  offset="0.6057" style="stop-color:#4141D2"/>
		<stop  offset="0.7324" style="stop-color:#423DD2"/>
		<stop  offset="0.8542" style="stop-color:#4432D2"/>
		<stop  offset="0.9736" style="stop-color:#471ED1"/>
		<stop  offset="1" style="stop-color:#4819D1"/>
	</linearGradient>
	<path style="fill:url(#SVGID_00000134951883478008590050000012088796274563385498_);" d="M13.1,0.4c0,0,11.3,12.6,11.4,13.1
		c0,0-3.2-1-6.1-2.6c0,0-3.2-5.5-4.8-8.5C12.9,1,13,0.8,13,0.6C13.1,0.6,13.1,0.4,13.1,0.4z"/>
	
		<linearGradient id="SVGID_00000155856660980770675120000010003097623204096684_" gradientUnits="userSpaceOnUse" x1="9.3732" y1="2.9299" x2="25.0344" y2="17.2335" gradientTransform="matrix(1 0 0 -1 0 28)">
		<stop  offset="0.1842" style="stop-color:#3C52C6"/>
		<stop  offset="0.2622" style="stop-color:#3E54C7"/>
		<stop  offset="0.3072" style="stop-color:#435DCA"/>
		<stop  offset="0.3438" style="stop-color:#4C6BCF"/>
		<stop  offset="0.3759" style="stop-color:#5A7FD6"/>
		<stop  offset="0.405" style="stop-color:#6B98E0"/>
		<stop  offset="0.432" style="stop-color:#80B8EB"/>
		<stop  offset="0.4568" style="stop-color:#99DDF9"/>
		<stop  offset="0.4667" style="stop-color:#A4EEFF"/>
		<stop  offset="0.4672" style="stop-color:#A4EDFF"/>
		<stop  offset="0.4882" style="stop-color:#8EC9F4"/>
		<stop  offset="0.5112" style="stop-color:#7BAAEC"/>
		<stop  offset="0.5373" style="stop-color:#6B8EE4"/>
		<stop  offset="0.5668" style="stop-color:#5E78DE"/>
		<stop  offset="0.6012" style="stop-color:#5467D9"/>
		<stop  offset="0.6437" style="stop-color:#4D5CD5"/>
		<stop  offset="0.7034" style="stop-color:#4955D4"/>
		<stop  offset="0.8691" style="stop-color:#4853D3"/>
	</linearGradient>
	<path style="fill:url(#SVGID_00000155856660980770675120000010003097623204096684_);" d="M18.6,11.8c0,0,4.9,1.9,5.5,2.4
		c0,0-6.3,7.2-11,12.5L18.6,11.8z"/>
	
		<linearGradient id="SVGID_00000118380851045292659630000015740048797377632930_" gradientUnits="userSpaceOnUse" x1="18.4227" y1="4.6064" x2="6.101" y2="17.2054" gradientTransform="matrix(1 0 0 -1 0 28)">
		<stop  offset="1.804124e-02" style="stop-color:#423BD7"/>
		<stop  offset="4.779797e-02" style="stop-color:#3F42D9"/>
		<stop  offset="9.233280e-02" style="stop-color:#3757DD"/>
		<stop  offset="0.1462" style="stop-color:#2A78E5"/>
		<stop  offset="0.2072" style="stop-color:#17A7F0"/>
		<stop  offset="0.274" style="stop-color:#00E2FD"/>
		<stop  offset="0.3233" style="stop-color:#04E2FD"/>
		<stop  offset="0.3696" style="stop-color:#0FE3FD"/>
		<stop  offset="0.4147" style="stop-color:#22E4FD"/>
		<stop  offset="0.459" style="stop-color:#3DE6FE"/>
		<stop  offset="0.5028" style="stop-color:#5FE9FE"/>
		<stop  offset="0.5455" style="stop-color:#88ECFF"/>
		<stop  offset="0.5702" style="stop-color:#A4EEFF"/>
		<stop  offset="0.6018" style="stop-color:#93E4FE"/>
		<stop  offset="0.678" style="stop-color:#71CFFC"/>
		<stop  offset="0.7556" style="stop-color:#56BFFA"/>
		<stop  offset="0.8344" style="stop-color:#43B3F9"/>
		<stop  offset="0.915" style="stop-color:#38ACF8"/>
		<stop  offset="1" style="stop-color:#34AAF8"/>
	</linearGradient>
	<path style="fill:url(#SVGID_00000118380851045292659630000015740048797377632930_);" d="M8.2,11.8l4.9-2.6v17.5
		C13,26.6,8.5,13.2,8.2,11.8z"/>
	
		<linearGradient id="SVGID_00000096037481784027483150000013093127356535834003_" gradientUnits="userSpaceOnUse" x1="13.5328" y1="26.4071" x2="16.3088" y2="14.4839" gradientTransform="matrix(1 0 0 -1 0 28)">
		<stop  offset="0" style="stop-color:#00ACFB"/>
		<stop  offset="0.1303" style="stop-color:#06B1FB"/>
		<stop  offset="0.2984" style="stop-color:#16BEFB"/>
		<stop  offset="0.4864" style="stop-color:#30D5FC"/>
		<stop  offset="0.5851" style="stop-color:#41E3FC"/>
		<stop  offset="0.6296" style="stop-color:#41DBF8"/>
		<stop  offset="0.6995" style="stop-color:#42C5EE"/>
		<stop  offset="0.7858" style="stop-color:#42A0DD"/>
		<stop  offset="0.8853" style="stop-color:#446DC6"/>
		<stop  offset="0.9947" style="stop-color:#452DA9"/>
		<stop  offset="1" style="stop-color:#452AA7"/>
	</linearGradient>
	<path style="fill:url(#SVGID_00000096037481784027483150000013093127356535834003_);" d="M17.7,10.6c0,0-4-1.9-4.6-2.5L13,1
		c0.2,0.5,0.5,1.3,1,2.2c0.6,1.4,1.1,2.2,2.3,4.5C16.6,8.4,17.1,9.4,17.7,10.6z"/>
	<path class="st11" d="M16.8,9"/>
	<path class="st11" d="M16.6,8.9"/>
	
		<linearGradient id="SVGID_00000180339631502695377630000013450305523982297772_" gradientUnits="userSpaceOnUse" x1="12.5122" y1="25.9754" x2="10.369" y2="16.3985" gradientTransform="matrix(1 0 0 -1 0 28)">
		<stop  offset="0.163" style="stop-color:#F6F7F6"/>
		<stop  offset="0.5851" style="stop-color:#F7FBFB"/>
		<stop  offset="0.6751" style="stop-color:#EFF9FB"/>
		<stop  offset="0.8162" style="stop-color:#D9F4FA"/>
		<stop  offset="0.9898" style="stop-color:#B4ECF9"/>
		<stop  offset="1" style="stop-color:#B2EBF9"/>
	</linearGradient>
	<path style="fill:url(#SVGID_00000180339631502695377630000013450305523982297772_);" d="M8.6,10.6c0,0,0.8,0,4.6-2.4L13,1.5
		L8.6,10.6z"/>
	
		<linearGradient id="SVGID_00000095296376069774287550000005214820894111780256_" gradientUnits="userSpaceOnUse" x1="3.2943" y1="12.9249" x2="15.3438" y2="33.7451" gradientTransform="matrix(1 0 0 -1 0 28)">
		<stop  offset="2.818674e-02" style="stop-color:#007FEC"/>
		<stop  offset="0.1075" style="stop-color:#0091F2"/>
		<stop  offset="0.2256" style="stop-color:#00B3FC"/>
		<stop  offset="0.3087" style="stop-color:#2DC0FD"/>
		<stop  offset="0.4372" style="stop-color:#6CD3FD"/>
		<stop  offset="0.5602" style="stop-color:#A0E3FE"/>
		<stop  offset="0.6743" style="stop-color:#C9EFFE"/>
		<stop  offset="0.7776" style="stop-color:#E7F8FF"/>
		<stop  offset="0.8664" style="stop-color:#F9FDFF"/>
		<stop  offset="0.9306" style="stop-color:#FFFFFF"/>
	</linearGradient>
	<path style="fill:url(#SVGID_00000095296376069774287550000005214820894111780256_);" d="M1.9,13.8c0,0,2.1-0.7,5.3-2.1
		c0,0,0.5-0.3,0.8-0.8l5.1-9.5l0.1-1C13.1,0.4,3.2,11.4,1.9,13.8z"/>
	
		<linearGradient id="SVGID_00000151531583753027551230000014024767784700546978_" gradientUnits="userSpaceOnUse" x1="1.0086" y1="18.6674" x2="18.7477" y2="-0.4642" gradientTransform="matrix(1 0 0 -1 0 28)">
		<stop  offset="0.2062" style="stop-color:#34AAF8"/>
		<stop  offset="0.2925" style="stop-color:#36ABF8"/>
		<stop  offset="0.3378" style="stop-color:#3EB0F9"/>
		<stop  offset="0.3735" style="stop-color:#4CB8F9"/>
		<stop  offset="0.4042" style="stop-color:#5FC4FB"/>
		<stop  offset="0.4318" style="stop-color:#77D3FC"/>
		<stop  offset="0.4566" style="stop-color:#95E5FE"/>
		<stop  offset="0.4667" style="stop-color:#A4EEFF"/>
		<stop  offset="0.4689" style="stop-color:#9BEBFF"/>
		<stop  offset="0.4789" style="stop-color:#77E0FE"/>
		<stop  offset="0.4901" style="stop-color:#57D6FE"/>
		<stop  offset="0.5025" style="stop-color:#3BCDFD"/>
		<stop  offset="0.5166" style="stop-color:#25C7FD"/>
		<stop  offset="0.533" style="stop-color:#14C1FC"/>
		<stop  offset="0.5532" style="stop-color:#09BEFC"/>
		<stop  offset="0.5817" style="stop-color:#02BCFC"/>
		<stop  offset="0.6606" style="stop-color:#00BBFC"/>
		<stop  offset="0.6821" style="stop-color:#05B1F9"/>
		<stop  offset="0.7182" style="stop-color:#1297F2"/>
		<stop  offset="0.7644" style="stop-color:#286DE5"/>
		<stop  offset="0.8109" style="stop-color:#423BD7"/>
	</linearGradient>
	<path style="fill:url(#SVGID_00000151531583753027551230000014024767784700546978_);" d="M7.5,11.9c0,0,5.5,13.7,5.6,14.7
		c0,0-10.9-12.6-11.2-12.7C1.6,13.8,2.5,14,7.5,11.9z"/>
	
		<linearGradient id="SVGID_00000100361778371261254590000009070421198496385152_" gradientUnits="userSpaceOnUse" x1="-1697.0621" y1="4.6069" x2="-1709.3762" y2="17.198" gradientTransform="matrix(-1 0 0 -1 -1689.4838 28)">
		<stop  offset="9.742239e-02" style="stop-color:#403BD7"/>
		<stop  offset="0.1256" style="stop-color:#3246DA"/>
		<stop  offset="0.1783" style="stop-color:#0F62E3"/>
		<stop  offset="0.1977" style="stop-color:#006EE6"/>
		<stop  offset="0.2598" style="stop-color:#0471E7"/>
		<stop  offset="0.318" style="stop-color:#0F7AE8"/>
		<stop  offset="0.3747" style="stop-color:#2289EB"/>
		<stop  offset="0.4304" style="stop-color:#3D9DEF"/>
		<stop  offset="0.4854" style="stop-color:#5FB8F4"/>
		<stop  offset="0.5392" style="stop-color:#88D9FB"/>
		<stop  offset="0.5702" style="stop-color:#A4EEFF"/>
		<stop  offset="0.6022" style="stop-color:#93D6FA"/>
		<stop  offset="0.6654" style="stop-color:#77ACF0"/>
		<stop  offset="0.7299" style="stop-color:#5F89E9"/>
		<stop  offset="0.7951" style="stop-color:#4D6EE3"/>
		<stop  offset="0.8611" style="stop-color:#3F5BDE"/>
		<stop  offset="0.9287" style="stop-color:#3850DC"/>
		<stop  offset="1" style="stop-color:#354CDB"/>
	</linearGradient>
	<path style="fill:url(#SVGID_00000100361778371261254590000009070421198496385152_);" d="M17.9,11.8L13,9.1l0,0v17.5l0,0
		C13.2,26.1,17.5,13.1,17.9,11.8L17.9,11.8z"/>
</g>
</svg>
