<?xml version="1.0" encoding="utf-8"?>
<!-- Generator: Adobe Illustrator 28.0.0, SVG Export Plug-In . SVG Version: 6.00 Build 0)  -->
<svg version="1.1" id="Camada_1" xmlns="http://www.w3.org/2000/svg" xmlns:xlink="http://www.w3.org/1999/xlink" x="0px" y="0px"
	 viewBox="0 0 138 27" style="enable-background:new 0 0 138 27;" xml:space="preserve">
<style type="text/css">
	.st0{fill:url(#SVGID_1_);stroke:#FFFFFF;stroke-width:0.25;stroke-miterlimit:10;}
	
		.st1{fill:url(#SVGID_00000132767609913013963070000009402379452558842789_);stroke:#FFFFFF;stroke-width:0.25;stroke-miterlimit:10;}
	
		.st2{fill:url(#SVGID_00000010283584519128630180000013823401839850003349_);stroke:#FFFFFF;stroke-width:0.25;stroke-miterlimit:10;}
	
		.st3{fill:url(#SVGID_00000155830067709805092820000004152640336986341524_);stroke:#FFFFFF;stroke-width:0.25;stroke-miterlimit:10;}
	
		.st4{fill:url(#SVGID_00000047751221889287039250000007950903522034058154_);stroke:#FFFFFF;stroke-width:0.25;stroke-miterlimit:10;}
	
		.st5{fill:url(#SVGID_00000183211165777840665600000006052378892170810252_);stroke:#FFFFFF;stroke-width:0.25;stroke-miterlimit:10;}
	.st6{fill:#2F2559;}
	.st7{fill:url(#SVGID_00000162330416843096960340000002556884728152635523_);}
	.st8{fill:url(#SVGID_00000129916614392622629100000011416408963300763581_);}
	.st9{fill:url(#SVGID_00000161621084859396512080000018285843903870896532_);}
	.st10{fill:url(#SVGID_00000183930153631107403570000006913776425810050203_);}
	.st11{fill:#84F5FF;}
	.st12{fill:url(#SVGID_00000106843103760872142200000004541179072810779838_);}
	.st13{fill:url(#SVGID_00000010284160680471861450000000710720755283138462_);}
	.st14{fill:url(#SVGID_00000008835032221675564700000009749848326779957645_);}
	.st15{fill:url(#SVGID_00000025422314136098094870000001847702264876374174_);}
</style>
<g>
	
		<linearGradient id="SVGID_1_" gradientUnits="userSpaceOnUse" x1="36.4" y1="1066.3" x2="51.278" y2="1066.3" gradientTransform="matrix(1 0 0 1 0 -1052)">
		<stop  offset="0" style="stop-color:#3F3ED7"/>
		<stop  offset="1" style="stop-color:#0084EE"/>
	</linearGradient>
	<path class="st0" d="M39.7,15v6.5h-3.3V7.1h3.3v6.5l7.5-6.5h4.1L43,14.3l8.3,7.2h-4.1L39.7,15z"/>
	
		<linearGradient id="SVGID_00000038388164856182870700000015960017213723895486_" gradientUnits="userSpaceOnUse" x1="53.1318" y1="1066.3" x2="68.0097" y2="1066.3" gradientTransform="matrix(1 0 0 1 0 -1052)">
		<stop  offset="0" style="stop-color:#3F3ED7"/>
		<stop  offset="1" style="stop-color:#0084EE"/>
	</linearGradient>
	
		<path style="fill:url(#SVGID_00000038388164856182870700000015960017213723895486_);stroke:#FFFFFF;stroke-width:0.25;stroke-miterlimit:10;" d="
		M53.1,7.1h7.4c2.1,0,3.8,0.5,5.3,1.6S68,11,68,12.5s-0.7,2.8-2.2,3.8c-0.9,0.7-1.9,1.1-3.1,1.4l5.3,3.8h-4.1l-5-3.6h-2.5v3.6h-3.3
		C53.1,21.5,53.1,7.1,53.1,7.1z M56.4,9.5v6h4.1c1.1,0,2.1-0.3,2.9-0.9c0.8-0.6,1.2-1.3,1.2-2.1s-0.4-1.5-1.2-2.1
		c-0.7-0.6-1.7-0.9-2.8-0.9H56.4z"/>
	
		<linearGradient id="SVGID_00000183933655468176727120000005097017690313838771_" gradientUnits="userSpaceOnUse" x1="67.5288" y1="1066.35" x2="84.0595" y2="1066.35" gradientTransform="matrix(1 0 0 1 0 -1052)">
		<stop  offset="0" style="stop-color:#3F3ED7"/>
		<stop  offset="1" style="stop-color:#0084EE"/>
	</linearGradient>
	
		<path style="fill:url(#SVGID_00000183933655468176727120000005097017690313838771_);stroke:#FFFFFF;stroke-width:0.25;stroke-miterlimit:10;" d="
		M74.2,14.7L74,14.3l-6.5-7.2h3.7l4.5,5.1l4.7-5.1h3.7l-6.4,7.2l-0.2,0.3v7h-3.3C74.2,21.6,74.2,14.7,74.2,14.7z"/>
	
		<linearGradient id="SVGID_00000155128996994164609310000012241469567409502126_" gradientUnits="userSpaceOnUse" x1="85.5546" y1="1066.3" x2="100.4326" y2="1066.3" gradientTransform="matrix(1 0 0 1 0 -1052)">
		<stop  offset="0" style="stop-color:#3F3ED7"/>
		<stop  offset="1" style="stop-color:#0084EE"/>
	</linearGradient>
	
		<path style="fill:url(#SVGID_00000155128996994164609310000012241469567409502126_);stroke:#FFFFFF;stroke-width:0.25;stroke-miterlimit:10;" d="
		M85.6,7.1H93c2.1,0,3.8,0.5,5.3,1.6s2.2,2.3,2.2,3.8s-0.7,2.8-2.2,3.8c-1.5,1.1-3.2,1.6-5.3,1.6h-4.1v3.6h-3.3V7.1z M88.9,9.5v6H93
		c1.1,0,2.1-0.3,2.9-0.9c0.8-0.6,1.2-1.3,1.2-2.1s-0.4-1.5-1.2-2.1c-0.8-0.6-1.8-0.9-2.9-0.9H88.9z"/>
	
		<linearGradient id="SVGID_00000088851515988162826330000007397583761436023178_" gradientUnits="userSpaceOnUse" x1="100.9" y1="1066.35" x2="115.7779" y2="1066.35" gradientTransform="matrix(1 0 0 1 0 -1052)">
		<stop  offset="0" style="stop-color:#3F3ED7"/>
		<stop  offset="1" style="stop-color:#0084EE"/>
	</linearGradient>
	
		<path style="fill:url(#SVGID_00000088851515988162826330000007397583761436023178_);stroke:#FFFFFF;stroke-width:0.25;stroke-miterlimit:10;" d="
		M110,9.5v12.1h-3.3V9.5h-5.8l3.3-2.4h11.6l-3.3,2.4H110z"/>
	
		<linearGradient id="SVGID_00000154414250169440785070000017547772544887353508_" gradientUnits="userSpaceOnUse" x1="111.6" y1="1065.95" x2="131.4379" y2="1065.95" gradientTransform="matrix(1 0 0 1 0 -1052)">
		<stop  offset="0" style="stop-color:#3F3ED7"/>
		<stop  offset="1" style="stop-color:#0084EE"/>
	</linearGradient>
	
		<path style="fill:url(#SVGID_00000154414250169440785070000017547772544887353508_);stroke:#FFFFFF;stroke-width:0.25;stroke-miterlimit:10;" d="
		M111.6,21.5l9.9-15.1l9.9,15.1h-3.7l-6.2-9l-6.2,9H111.6z"/>
</g>
<g>
	<path class="st6" d="M16.6,4.9"/>
	
		<linearGradient id="SVGID_00000164486963215729317760000005499971176831463570_" gradientUnits="userSpaceOnUse" x1="14.7379" y1="27.7013" x2="24.6698" y2="10.6088" gradientTransform="matrix(1 0 0 -1 0 28)">
		<stop  offset="0" style="stop-color:#34AAF8"/>
		<stop  offset="0.1245" style="stop-color:#378EEE"/>
		<stop  offset="0.3378" style="stop-color:#3D64DF"/>
		<stop  offset="0.5055" style="stop-color:#404BD5"/>
		<stop  offset="0.6057" style="stop-color:#4141D2"/>
		<stop  offset="0.7324" style="stop-color:#423DD2"/>
		<stop  offset="0.8542" style="stop-color:#4432D2"/>
		<stop  offset="0.9736" style="stop-color:#471ED1"/>
		<stop  offset="1" style="stop-color:#4819D1"/>
	</linearGradient>
	<path style="fill:url(#SVGID_00000164486963215729317760000005499971176831463570_);" d="M13.3,0.4c0,0,11.3,12.6,11.4,13.1
		c0,0-3.2-1-6.1-2.6c0,0-3.2-5.5-4.8-8.5c-0.7-1.4-0.6-1.6-0.6-1.8C13.3,0.6,13.3,0.4,13.3,0.4z"/>
	
		<linearGradient id="SVGID_00000029045660360817816300000006927884743435142293_" gradientUnits="userSpaceOnUse" x1="9.6227" y1="2.9799" x2="25.2839" y2="17.2835" gradientTransform="matrix(1 0 0 -1 0 28)">
		<stop  offset="0.1842" style="stop-color:#3C52C6"/>
		<stop  offset="0.2622" style="stop-color:#3E54C7"/>
		<stop  offset="0.3072" style="stop-color:#435DCA"/>
		<stop  offset="0.3438" style="stop-color:#4C6BCF"/>
		<stop  offset="0.3759" style="stop-color:#5A7FD6"/>
		<stop  offset="0.405" style="stop-color:#6B98E0"/>
		<stop  offset="0.432" style="stop-color:#80B8EB"/>
		<stop  offset="0.4568" style="stop-color:#99DDF9"/>
		<stop  offset="0.4667" style="stop-color:#A4EEFF"/>
		<stop  offset="0.4672" style="stop-color:#A4EDFF"/>
		<stop  offset="0.4882" style="stop-color:#8EC9F4"/>
		<stop  offset="0.5112" style="stop-color:#7BAAEC"/>
		<stop  offset="0.5373" style="stop-color:#6B8EE4"/>
		<stop  offset="0.5668" style="stop-color:#5E78DE"/>
		<stop  offset="0.6012" style="stop-color:#5467D9"/>
		<stop  offset="0.6437" style="stop-color:#4D5CD5"/>
		<stop  offset="0.7034" style="stop-color:#4955D4"/>
		<stop  offset="0.8691" style="stop-color:#4853D3"/>
	</linearGradient>
	<path style="fill:url(#SVGID_00000029045660360817816300000006927884743435142293_);" d="M18.8,11.7c0,0,4.9,1.9,5.5,2.4
		c0,0-6.3,7.2-11,12.5L18.8,11.7z"/>
	
		<linearGradient id="SVGID_00000132789333907882159340000004460939431609347214_" gradientUnits="userSpaceOnUse" x1="18.6722" y1="4.6564" x2="6.3505" y2="17.2554" gradientTransform="matrix(1 0 0 -1 0 28)">
		<stop  offset="1.804124e-02" style="stop-color:#423BD7"/>
		<stop  offset="4.779797e-02" style="stop-color:#3F42D9"/>
		<stop  offset="9.233280e-02" style="stop-color:#3757DD"/>
		<stop  offset="0.1462" style="stop-color:#2A78E5"/>
		<stop  offset="0.2072" style="stop-color:#17A7F0"/>
		<stop  offset="0.274" style="stop-color:#00E2FD"/>
		<stop  offset="0.3233" style="stop-color:#04E2FD"/>
		<stop  offset="0.3696" style="stop-color:#0FE3FD"/>
		<stop  offset="0.4147" style="stop-color:#22E4FD"/>
		<stop  offset="0.459" style="stop-color:#3DE6FE"/>
		<stop  offset="0.5028" style="stop-color:#5FE9FE"/>
		<stop  offset="0.5455" style="stop-color:#88ECFF"/>
		<stop  offset="0.5702" style="stop-color:#A4EEFF"/>
		<stop  offset="0.6018" style="stop-color:#93E4FE"/>
		<stop  offset="0.678" style="stop-color:#71CFFC"/>
		<stop  offset="0.7556" style="stop-color:#56BFFA"/>
		<stop  offset="0.8344" style="stop-color:#43B3F9"/>
		<stop  offset="0.915" style="stop-color:#38ACF8"/>
		<stop  offset="1" style="stop-color:#34AAF8"/>
	</linearGradient>
	<path style="fill:url(#SVGID_00000132789333907882159340000004460939431609347214_);" d="M8.4,11.7l4.9-2.6v17.5
		C13.2,26.6,8.7,13.2,8.4,11.7z"/>
	
		<linearGradient id="SVGID_00000044175491502645647450000007749470429317758598_" gradientUnits="userSpaceOnUse" x1="13.7823" y1="26.4571" x2="16.5583" y2="14.5339" gradientTransform="matrix(1 0 0 -1 0 28)">
		<stop  offset="0" style="stop-color:#00ACFB"/>
		<stop  offset="0.1303" style="stop-color:#06B1FB"/>
		<stop  offset="0.2984" style="stop-color:#16BEFB"/>
		<stop  offset="0.4864" style="stop-color:#30D5FC"/>
		<stop  offset="0.5851" style="stop-color:#41E3FC"/>
		<stop  offset="0.6296" style="stop-color:#41DBF8"/>
		<stop  offset="0.6995" style="stop-color:#42C5EE"/>
		<stop  offset="0.7858" style="stop-color:#42A0DD"/>
		<stop  offset="0.8853" style="stop-color:#446DC6"/>
		<stop  offset="0.9947" style="stop-color:#452DA9"/>
		<stop  offset="1" style="stop-color:#452AA7"/>
	</linearGradient>
	<path style="fill:url(#SVGID_00000044175491502645647450000007749470429317758598_);" d="M17.9,10.6c0,0-4-1.9-4.6-2.5L13.2,1
		c0.2,0.5,0.5,1.3,1,2.2c0.6,1.4,1.1,2.2,2.3,4.5C16.8,8.4,17.3,9.4,17.9,10.6z"/>
	<path class="st11" d="M17,9"/>
	<path class="st11" d="M16.8,8.9"/>
	
		<linearGradient id="SVGID_00000032608985503196910310000001456534746694364576_" gradientUnits="userSpaceOnUse" x1="12.7617" y1="26.0254" x2="10.6185" y2="16.4485" gradientTransform="matrix(1 0 0 -1 0 28)">
		<stop  offset="0.163" style="stop-color:#F6F7F6"/>
		<stop  offset="0.5851" style="stop-color:#F7FBFB"/>
		<stop  offset="0.6751" style="stop-color:#EFF9FB"/>
		<stop  offset="0.8162" style="stop-color:#D9F4FA"/>
		<stop  offset="0.9898" style="stop-color:#B4ECF9"/>
		<stop  offset="1" style="stop-color:#B2EBF9"/>
	</linearGradient>
	<path style="fill:url(#SVGID_00000032608985503196910310000001456534746694364576_);" d="M8.8,10.6c0,0,0.8,0,4.6-2.4l-0.2-6.8
		L8.8,10.6z"/>
	
		<linearGradient id="SVGID_00000126309626018518160960000014762317167981198216_" gradientUnits="userSpaceOnUse" x1="3.5438" y1="12.9749" x2="15.5933" y2="33.7951" gradientTransform="matrix(1 0 0 -1 0 28)">
		<stop  offset="2.818674e-02" style="stop-color:#007FEC"/>
		<stop  offset="0.1075" style="stop-color:#0091F2"/>
		<stop  offset="0.2256" style="stop-color:#00B3FC"/>
		<stop  offset="0.3087" style="stop-color:#2DC0FD"/>
		<stop  offset="0.4372" style="stop-color:#6CD3FD"/>
		<stop  offset="0.5602" style="stop-color:#A0E3FE"/>
		<stop  offset="0.6743" style="stop-color:#C9EFFE"/>
		<stop  offset="0.7776" style="stop-color:#E7F8FF"/>
		<stop  offset="0.8664" style="stop-color:#F9FDFF"/>
		<stop  offset="0.9306" style="stop-color:#FFFFFF"/>
	</linearGradient>
	<path style="fill:url(#SVGID_00000126309626018518160960000014762317167981198216_);" d="M2.1,13.7c0,0,2.1-0.7,5.3-2.1
		c0,0,0.5-0.3,0.8-0.8l5.1-9.5l0.1-1C13.3,0.4,3.4,11.4,2.1,13.7z"/>
	
		<linearGradient id="SVGID_00000080168291422551940170000002297778625563810714_" gradientUnits="userSpaceOnUse" x1="1.2581" y1="18.7174" x2="18.9972" y2="-0.4142" gradientTransform="matrix(1 0 0 -1 0 28)">
		<stop  offset="0.2062" style="stop-color:#34AAF8"/>
		<stop  offset="0.2925" style="stop-color:#36ABF8"/>
		<stop  offset="0.3378" style="stop-color:#3EB0F9"/>
		<stop  offset="0.3735" style="stop-color:#4CB8F9"/>
		<stop  offset="0.4042" style="stop-color:#5FC4FB"/>
		<stop  offset="0.4318" style="stop-color:#77D3FC"/>
		<stop  offset="0.4566" style="stop-color:#95E5FE"/>
		<stop  offset="0.4667" style="stop-color:#A4EEFF"/>
		<stop  offset="0.4689" style="stop-color:#9BEBFF"/>
		<stop  offset="0.4789" style="stop-color:#77E0FE"/>
		<stop  offset="0.4901" style="stop-color:#57D6FE"/>
		<stop  offset="0.5025" style="stop-color:#3BCDFD"/>
		<stop  offset="0.5166" style="stop-color:#25C7FD"/>
		<stop  offset="0.533" style="stop-color:#14C1FC"/>
		<stop  offset="0.5532" style="stop-color:#09BEFC"/>
		<stop  offset="0.5817" style="stop-color:#02BCFC"/>
		<stop  offset="0.6606" style="stop-color:#00BBFC"/>
		<stop  offset="0.6821" style="stop-color:#05B1F9"/>
		<stop  offset="0.7182" style="stop-color:#1297F2"/>
		<stop  offset="0.7644" style="stop-color:#286DE5"/>
		<stop  offset="0.8109" style="stop-color:#423BD7"/>
	</linearGradient>
	<path style="fill:url(#SVGID_00000080168291422551940170000002297778625563810714_);" d="M7.7,11.9c0,0,5.5,13.7,5.6,14.7
		c0,0-10.9-12.6-11.2-12.7S2.7,14,7.7,11.9z"/>
	
		<linearGradient id="SVGID_00000158727002597582340880000012169088382182814110_" gradientUnits="userSpaceOnUse" x1="-1697.3116" y1="4.6569" x2="-1709.6257" y2="17.248" gradientTransform="matrix(-1 0 0 -1 -1689.4838 28)">
		<stop  offset="9.742239e-02" style="stop-color:#403BD7"/>
		<stop  offset="0.1256" style="stop-color:#3246DA"/>
		<stop  offset="0.1783" style="stop-color:#0F62E3"/>
		<stop  offset="0.1977" style="stop-color:#006EE6"/>
		<stop  offset="0.2598" style="stop-color:#0471E7"/>
		<stop  offset="0.318" style="stop-color:#0F7AE8"/>
		<stop  offset="0.3747" style="stop-color:#2289EB"/>
		<stop  offset="0.4304" style="stop-color:#3D9DEF"/>
		<stop  offset="0.4854" style="stop-color:#5FB8F4"/>
		<stop  offset="0.5392" style="stop-color:#88D9FB"/>
		<stop  offset="0.5702" style="stop-color:#A4EEFF"/>
		<stop  offset="0.6022" style="stop-color:#93D6FA"/>
		<stop  offset="0.6654" style="stop-color:#77ACF0"/>
		<stop  offset="0.7299" style="stop-color:#5F89E9"/>
		<stop  offset="0.7951" style="stop-color:#4D6EE3"/>
		<stop  offset="0.8611" style="stop-color:#3F5BDE"/>
		<stop  offset="0.9287" style="stop-color:#3850DC"/>
		<stop  offset="1" style="stop-color:#354CDB"/>
	</linearGradient>
	<path style="fill:url(#SVGID_00000158727002597582340880000012169088382182814110_);" d="M18.1,11.7l-4.9-2.6l0,0v17.5l0,0
		C13.4,26.1,17.7,13.1,18.1,11.7L18.1,11.7z"/>
</g>
</svg>
